<?xml version="1.0" encoding="utf-8"?>
<!-- Generator: Adobe Illustrator 24.3.0, SVG Export Plug-In . SVG Version: 6.00 Build 0)  -->
<!DOCTYPE svg PUBLIC "-//W3C//DTD SVG 1.1//EN" "http://www.w3.org/Graphics/SVG/1.1/DTD/svg11.dtd" [
	<!ENTITY ns_extend "http://ns.adobe.com/Extensibility/1.0/">
	<!ENTITY ns_ai "http://ns.adobe.com/AdobeIllustrator/10.0/">
	<!ENTITY ns_graphs "http://ns.adobe.com/Graphs/1.0/">
	<!ENTITY ns_vars "http://ns.adobe.com/Variables/1.0/">
	<!ENTITY ns_imrep "http://ns.adobe.com/ImageReplacement/1.0/">
	<!ENTITY ns_sfw "http://ns.adobe.com/SaveForWeb/1.0/">
	<!ENTITY ns_custom "http://ns.adobe.com/GenericCustomNamespace/1.0/">
	<!ENTITY ns_adobe_xpath "http://ns.adobe.com/XPath/1.0/">
]>
<svg version="1.1" id="Bandera" xmlns:x="&ns_extend;" xmlns:i="&ns_ai;" xmlns:graph="&ns_graphs;"
	 xmlns="http://www.w3.org/2000/svg" xmlns:xlink="http://www.w3.org/1999/xlink" x="0px" y="0px" viewBox="0 0 1080 648"
	 style="enable-background:new 0 0 1080 648;" xml:space="preserve">
<style type="text/css">
	.st0{fill:#F7D117;}
	.st1{fill:#CF142B;}
	.st2{fill:#FFFFFF;}
	.st3{fill:#008033;}
	.st4{fill:#013D15;}
	.st5{fill:#7F0620;}
</style>
<metadata>
	<sfw  xmlns="&ns_sfw;">
		<slices></slices>
		<sliceSourceBounds  bottomLeftOrigin="true" height="648" width="16383" x="-7615" y="0"></sliceSourceBounds>
	</sfw>
</metadata>
<rect class="st0" width="1080" height="216"/>
<rect y="216" width="1080" height="216"/>
<rect y="432" class="st1" width="1080" height="216"/>
<g>
	<g id="Estrellas">
		<g>
			<g>
				<g>
					<polygon class="st2" points="566.3,264 555.3,266.4 562.4,257.9 556.6,248.5 567.2,252.4 574.4,244.2 574.1,255 584.4,259.4 
						573.5,262.2 572.5,273.1 					"/>
				</g>
			</g>
			<g>
				<g>
					<polygon class="st2" points="605.2,299.8 595.6,294.1 606.7,292.7 609.3,282.2 614,292.1 625.3,291.1 617.1,298.6 621.5,308.6 
						611.5,303.3 603.1,310.5 					"/>
				</g>
			</g>
			<g>
				<g>
					<polygon class="st2" points="513.7,263.9 507.5,273 506.5,262.1 495.8,259.3 506.1,255 505.5,244 513,252.3 523.5,248.4 
						517.7,257.8 524.8,266.3 					"/>
				</g>
			</g>
			<g>
				<g>
					<polygon class="st2" points="474.9,299.7 477,310.4 468.4,303.3 458.5,308.6 463,298.4 454.7,291 466,291.9 470.8,282.1 
						473.3,292.7 484.5,294 					"/>
				</g>
			</g>
		</g>
		<g>
			<g>
				<g>
					<polygon class="st2" points="565.6,265 552.3,267.9 561,257.7 554,246.5 566.6,251.2 575.5,241.3 574.9,254.4 587.3,259.5 
						574.2,262.8 573,276 					"/>
				</g>
			</g>
			<g>
				<g>
					<polygon class="st2" points="604.2,300.4 592.5,293.7 606,292 609.1,279.3 614.8,291.2 628.2,290 618.4,299.1 623.7,311 
						611.9,304.7 601.7,313.4 					"/>
				</g>
			</g>
			<g>
				<g>
					<polygon class="st2" points="514.4,265 507.1,275.9 505.8,262.8 492.8,259.4 505.3,254.2 504.6,241.2 513.6,251 526.1,246.3 
						519.1,257.6 527.8,267.8 					"/>
				</g>
			</g>
			<g>
				<g>
					<polygon class="st2" points="475.9,300.4 478.4,313.3 468.2,304.7 456.4,311 461.6,298.9 451.7,290 465.3,291 471,279.2 
						474,292 487.5,293.6 					"/>
				</g>
			</g>
		</g>
	</g>
	<g id="Cafe2">
		<g>
			<g>
				<path class="st3" d="M524.8,406.6c-0.2,0-0.3-0.1-0.3-0.1c0-0.1,0-0.5,0.4-0.7c5.5-2.8,12.1-4.5,19.5-5h0.6
					c8.5-0.6,21.4-2.9,34.5-10.8c21.9-13,30.5-33.3,33.7-44.1l0-0.1l-0.1-0.1c-0.9-1.1-2.9-4-3.1-8.2c-0.4-6.4,3.7-10.8,5.6-12.6
					c4.2,3.5,6,8.9,4.7,13.5c-1.3,4.3-4.9,6.8-6.1,7.3l-0.1,0l0,0.1c-4.2,15.4-13.4,29.4-26,39.3c-16.3,12.8-34,15.8-43,16.5h-0.5
					C537.3,402,530.7,403.7,524.8,406.6z"/>
				<path class="st4" d="M615.8,325.2c4,3.4,5.8,8.7,4.4,13.1c-1.2,4.2-4.8,6.7-6,7.2l-0.2,0.1l-0.1,0.2
					c-4.2,15.4-13.4,29.3-25.9,39.2c-16.3,12.8-33.9,15.8-42.9,16.4l-0.6,0c-7.5,0.4-14,2.1-19.9,5c0-0.1,0.1-0.2,0.3-0.3
					c5.5-2.8,12.1-4.4,19.4-5l0.7,0c8.6-0.6,21.5-2.9,34.5-10.8c21.9-13.1,30.6-33.4,33.8-44.3l0.1-0.2l-0.1-0.2
					c-0.8-1.1-2.8-4-3-8.1C610,331.4,613.9,327,615.8,325.2 M615.8,324.6c-0.8,0.7-6.3,5.5-5.9,12.9c0.2,4.1,2,7,3.1,8.3
					c-1.9,6.3-9.4,29.6-33.6,44c-13.4,8.1-26.5,10.2-34.3,10.7c-0.1,0-0.3,0-0.6,0c-9.2,0.7-15.5,3-19.6,5.1c-0.5,0.3-0.6,0.8-0.5,1
					s0.4,0.2,0.5,0.2c4.3-2.1,10.7-4.4,19.9-5c0.3,0,0.4,0,0.5,0c7.5-0.5,25.8-2.9,43.1-16.5c18.6-14.6,24.4-33.2,26.1-39.4
					c1-0.4,4.9-2.9,6.2-7.5C622.1,333.7,620.1,328.2,615.8,324.6L615.8,324.6z"/>
			</g>
			<g>
				<path class="st3" d="M613.7,345.5c0,0-0.1,0-0.2-0.1c-0.8-1.1-2.8-3.9-2.9-7.9c-0.4-5.9,3.3-10.1,5.2-12
					c3.8,3.4,5.5,8.4,4.2,12.8c-1.3,4.6-5.3,6.8-5.8,7l-0.1,0C613.9,345.4,613.8,345.5,613.7,345.5L613.7,345.5z"/>
				<g>
					<path class="st4" d="M615.8,326.4c3.3,3.2,4.7,7.7,3.6,11.7c-1.1,3.7-4.2,5.9-5.3,6.5l-0.3,0.1c-0.9-1.2-2.5-3.7-2.6-7.3
						C611,332.2,613.9,328.4,615.8,326.4 M615.8,324.6c-0.8,0.7-6.3,5.5-5.9,12.9c0.2,4.1,2,7,3.1,8.3l0,0c0,0,0.3,0.3,0.6,0.3
						c0,0,0,0,0,0c0.3,0,0.8-0.2,0.8-0.2c0,0,0,0,0,0c1-0.4,4.9-2.9,6.2-7.5C622.1,333.7,620.1,328.2,615.8,324.6L615.8,324.6z"/>
				</g>
			</g>
			<g>
				<path class="st3" d="M619.8,353.2c-1.6,0-3.4-0.3-5.4-0.9c2-6,7.1-8.8,16-8.9C628.6,350,625.1,353.2,619.8,353.2z"/>
				<path class="st4" d="M629.5,344.1c-1.8,5.7-4.9,8.4-9.7,8.4c-1.4,0-2.9-0.2-4.5-0.6C616.6,348.4,619.8,344.4,629.5,344.1
					 M630.9,342.7c-11.1,0-15.6,4.1-17.3,10c2.2,0.7,4.3,1.1,6.2,1.1c5.4,0,9.5-3.1,11.4-11.1C631.1,342.7,631,342.7,630.9,342.7
					L630.9,342.7z"/>
			</g>
			<g>
				<path class="st1" d="M614.9,361.2c-1.3,0-2.4-0.9-2.7-2.1c-0.2-0.7-0.1-1.4,0.3-2c0.4-0.7,1-1.1,1.8-1.3
					c0.2-0.1,0.4-0.1,0.6-0.1c1.3,0,2.5,0.9,2.7,2.1c0.2,0.7,0.1,1.4-0.3,2c-0.4,0.6-1,1.1-1.7,1.2
					C615.4,361.2,615.2,361.2,614.9,361.2z"/>
				<path class="st5" d="M614.9,356.1L614.9,356.1c1.1,0,2.1,0.8,2.3,1.8c0.1,0.6,0,1.2-0.3,1.7c-0.3,0.5-0.9,0.9-1.5,1
					c-0.2,0-0.4,0.1-0.6,0.1c-1.1,0-2-0.8-2.3-1.8c-0.1-0.6-0.1-1.1,0.2-1.6c0.3-0.5,0.9-0.9,1.5-1.1
					C614.6,356.1,614.8,356.1,614.9,356.1 M614.9,355.2c-0.2,0-0.5,0-0.7,0.1c-1.8,0.4-2.8,2.1-2.4,3.8c0.3,1.4,1.6,2.5,3.1,2.5
					c0.3,0,0.5,0,0.8-0.1c1.7-0.4,2.8-2.1,2.4-3.8C617.8,356.3,616.4,355.2,614.9,355.2L614.9,355.2z"/>
			</g>
		</g>
		<g>
			<path class="st3" d="M613.1,371.9c-2.2,0-4.6-0.7-7.3-2.1c2.3-4.2,6.3-6.2,12-6.2c1.7,0,3.6,0.2,5.6,0.5
				C620.7,369.3,617.3,371.9,613.1,371.9z"/>
			<path class="st4" d="M617.9,362.9v1.3c1.4,0,2.9,0.1,4.5,0.4c-2.5,4.5-5.6,6.6-9.2,6.6c-1.9,0-4-0.6-6.3-1.7
				c2.3-3.6,5.8-5.3,11.1-5.3L617.9,362.9 M617.9,362.9c-6.9,0-10.7,2.9-12.9,7.2c2.9,1.6,5.6,2.5,8.2,2.5c4.4,0,8.2-2.6,11.3-8.9
				C622,363.1,619.8,362.9,617.9,362.9L617.9,362.9z"/>
		</g>
		<g>
			<path class="st1" d="M604.7,378.1c-1.3,0-2.4-0.9-2.7-2.1c-0.3-1.5,0.6-3,2.1-3.3c0.2-0.1,0.4-0.1,0.7-0.1c1.3,0,2.5,0.9,2.7,2.1
				c0.2,0.7,0.1,1.4-0.3,2c-0.4,0.6-1,1.1-1.7,1.2C605.2,378,605,378.1,604.7,378.1z"/>
			<path class="st5" d="M604.7,373c1.1,0,2.1,0.8,2.3,1.8c0.1,0.6,0,1.2-0.3,1.7c-0.3,0.5-0.9,0.9-1.5,1c-0.2,0-0.4,0.1-0.6,0.1
				c-1.1,0-2-0.8-2.3-1.8c-0.3-1.3,0.5-2.5,1.8-2.8C604.4,373,604.6,373,604.7,373 M604.7,372.1c-0.2,0-0.5,0-0.7,0.1
				c-1.7,0.4-2.8,2-2.4,3.8c0.3,1.4,1.6,2.5,3.1,2.5c0.3,0,0.5,0,0.8-0.1c1.7-0.4,2.8-2.1,2.4-3.8
				C607.6,373.1,606.2,372.1,604.7,372.1L604.7,372.1z"/>
		</g>
		<g>
			<path class="st3" d="M601.6,388.1c-2.8,0-5.7-1.3-8.8-4c2.5-2.6,5.3-3.8,8.9-3.8c2.8,0,5.9,0.8,9.6,2.3
				C608.1,386.3,604.9,388.1,601.6,388.1z"/>
			<path class="st4" d="M601.7,381L601.7,381c2.4,0,5.3,0.6,8.5,1.9c-2.9,3.1-5.7,4.6-8.6,4.6c-2.5,0-5-1.1-7.8-3.4
				C596.1,382,598.6,381,601.7,381 M601.7,379.6c-4.3,0-7.3,1.8-9.8,4.5c3.2,2.9,6.4,4.6,9.7,4.6c3.5,0,7.1-1.9,10.8-6.4
				C608.2,380.5,604.7,379.6,601.7,379.6L601.7,379.6z"/>
		</g>
		<g>
			<path class="st3" d="M586.6,401.4c-3.7,0-6.8-2.1-9.7-6.5c2.1-1.2,4.1-1.8,6.3-1.8c3.7,0,7.5,1.7,11.9,5.3
				C592,400.3,589.1,401.4,586.6,401.4z"/>
			<path class="st4" d="M583.2,393.7L583.2,393.7c3.3,0,6.8,1.5,10.7,4.5c-2.7,1.6-5.1,2.5-7.3,2.5c-3.3,0-6.1-1.8-8.7-5.6
				C579.7,394.2,581.4,393.7,583.2,393.7 M583.2,392.4c-2.6,0-5,0.9-7.2,2.3c2.8,4.6,6.2,7.4,10.6,7.4c2.8,0,5.9-1.1,9.6-3.7
				C591.2,394.1,586.9,392.4,583.2,392.4L583.2,392.4z"/>
		</g>
		<g>
			<path class="st1" d="M590.8,392c-1.3,0-2.4-0.9-2.7-2.1c-0.3-1.4,0.6-2.8,2.1-3.3c0.2,0,0.4-0.1,0.6-0.1c1.3,0,2.5,0.9,2.7,2.1
				c0.2,0.7,0.1,1.4-0.3,2c-0.4,0.6-1,1.1-1.7,1.2C591.2,392,591,392,590.8,392z"/>
			<path class="st5" d="M590.8,386.9L590.8,386.9c1.1,0,2.1,0.8,2.3,1.8c0.1,0.6,0,1.2-0.3,1.7c-0.3,0.5-0.9,0.9-1.5,1
				c-0.2,0-0.4,0.1-0.6,0.1c-1.1,0-2-0.8-2.3-1.8c-0.3-1.2,0.5-2.4,1.8-2.8C590.5,386.9,590.6,386.9,590.8,386.9 M590.8,386
				c-0.2,0-0.5,0-0.7,0.1c-1.8,0.5-2.8,2.2-2.4,3.8c0.3,1.4,1.6,2.5,3.1,2.5c0.3,0,0.5,0,0.8-0.1c1.7-0.4,2.8-2.1,2.4-3.8
				C593.7,387.1,592.3,386,590.8,386L590.8,386z"/>
		</g>
		<g>
			<path class="st1" d="M573.2,402.2c-1.3,0-2.4-0.9-2.7-2.1c-0.3-1.5,0.6-2.9,2.1-3.3c0.2-0.1,0.4-0.1,0.6-0.1
				c1.3,0,2.5,0.9,2.7,2.1c0.2,0.7,0.1,1.4-0.3,2c-0.4,0.6-1,1.1-1.7,1.2C573.7,402.2,573.4,402.2,573.2,402.2z"/>
			<path class="st5" d="M573.2,397.1L573.2,397.1c1.1,0,2.1,0.8,2.3,1.8c0.1,0.6,0,1.2-0.3,1.7c-0.3,0.5-0.9,0.9-1.5,1
				c-0.2,0-0.4,0.1-0.6,0.1c-1.1,0-2-0.8-2.3-1.8c-0.3-1.3,0.5-2.5,1.8-2.8C572.9,397.1,573.1,397.1,573.2,397.1 M573.2,396.2
				c-0.2,0-0.5,0-0.7,0.1c-1.8,0.4-2.8,2.1-2.4,3.8c0.3,1.4,1.6,2.5,3.1,2.5c0.3,0,0.5,0,0.8-0.1c1.7-0.4,2.8-2.1,2.4-3.8
				C576.1,397.3,574.7,396.2,573.2,396.2L573.2,396.2z"/>
		</g>
		<g>
			<path class="st3" d="M609.5,350.5c-4.3-1.5-6.9-3.6-8-6.3c-1.2-2.7-0.8-6,1-10.2C609.5,339.4,611.7,344.7,609.5,350.5z"/>
			<path class="st4" d="M602.7,335.1c7.6,6.1,7.6,11.1,6.4,14.6c-3.7-1.4-6-3.3-7-5.7C601,341.6,601.2,338.7,602.7,335.1 M602.1,333
				c-4.7,10.2-0.9,15.4,7.7,18.4C612.3,345.7,611.2,339.6,602.1,333L602.1,333z"/>
		</g>
		<g>
			<path class="st3" d="M600.9,366.4c-3.8-2.3-6-4.8-6.6-7.7c-0.6-2.9,0.4-6.1,3-9.9C603.1,355.5,604.3,361.1,600.9,366.4z"/>
			<path class="st4" d="M597.4,350c6.2,7.5,5.2,12.3,3.3,15.6c-3.3-2.1-5.2-4.4-5.7-6.9C594.4,356.1,595.2,353.2,597.4,350
				 M597.3,347.8c-6.7,9.1-3.9,15.1,3.8,19.5C604.6,362.3,604.8,356.1,597.3,347.8L597.3,347.8z"/>
		</g>
		<g>
			<path class="st3" d="M589,379.9c-3.1-3.1-4.5-6-4.4-8.9c0.1-2.9,2-5.9,5.5-8.9C594.1,369.8,593.7,375.5,589,379.9z"/>
			<path class="st4" d="M589.9,363.1c4.1,8.5,2,13-0.9,15.8c-2.6-2.8-3.8-5.4-3.7-7.9C585.4,368.4,587,365.8,589.9,363.1 M590.3,361
				c-8.8,7.1-7.7,13.6-1.3,19.8C593.8,376.6,595.6,370.8,590.3,361L590.3,361z"/>
		</g>
		<g>
			<path class="st3" d="M574.4,390.3c-2.2-3.8-2.9-6.9-2-9.7c0.9-2.9,3.3-5.3,7.6-7.4C581.8,381.7,580,387.1,574.4,390.3z"/>
			<path class="st4" d="M579.5,374.2c1.8,9.2-1.3,13-4.8,15.1c-1.8-3.3-2.4-6.1-1.7-8.6C573.8,378.3,575.9,376.2,579.5,374.2
				 M580.4,372.3c-10.4,4.9-10.8,11.4-6.2,18.9C579.9,388.3,583,382.9,580.4,372.3L580.4,372.3z"/>
		</g>
		<g>
			<path class="st1" d="M605.5,356.7c-1.3,0-2.4-0.9-2.7-2.1c-0.4-1.4,0.5-2.8,2.1-3.3c0.2,0,0.4-0.1,0.6-0.1c1.3,0,2.5,0.9,2.7,2.1
				c0.2,0.7,0.1,1.4-0.3,2c-0.4,0.6-1,1.1-1.7,1.2C606,356.6,605.8,356.7,605.5,356.7z"/>
			<path class="st5" d="M605.5,351.6L605.5,351.6c1.1,0,2.1,0.8,2.3,1.8c0.1,0.6,0,1.2-0.3,1.7c-0.3,0.5-0.9,0.9-1.5,1
				c-0.2,0-0.4,0.1-0.6,0.1c-1.1,0-2-0.8-2.3-1.8l0,0l0,0c-0.3-1.1,0.5-2.3,1.8-2.7C605.2,351.6,605.4,351.6,605.5,351.6
				 M605.5,350.7c-0.2,0-0.5,0-0.7,0.1c-1.8,0.5-2.8,2.2-2.4,3.8c0.3,1.4,1.6,2.5,3.1,2.5c0.3,0,0.5,0,0.8-0.1
				c1.7-0.4,2.8-2.1,2.4-3.8C608.4,351.8,607,350.7,605.5,350.7L605.5,350.7z"/>
		</g>
		<g>
			<path class="st1" d="M596.5,371.3c-1.3,0-2.4-0.9-2.7-2.1c-0.3-1.5,0.6-2.9,2.1-3.3c0.2-0.1,0.4-0.1,0.6-0.1
				c1.3,0,2.5,0.9,2.7,2.1c0.2,0.7,0.1,1.4-0.3,2c-0.4,0.6-1,1.1-1.7,1.2C596.9,371.3,596.7,371.3,596.5,371.3z"/>
			<path class="st5" d="M596.5,366.2L596.5,366.2c1.1,0,2.1,0.8,2.3,1.8c0.1,0.6,0,1.2-0.3,1.7c-0.3,0.5-0.9,0.9-1.5,1
				c-0.2,0-0.4,0.1-0.6,0.1c-1.1,0-2-0.8-2.3-1.8c-0.3-1.3,0.5-2.5,1.8-2.8C596.1,366.3,596.3,366.2,596.5,366.2 M596.5,365.4
				c-0.2,0-0.5,0-0.7,0.1c-1.8,0.4-2.8,2.1-2.4,3.8c0.3,1.4,1.6,2.5,3.1,2.5c0.3,0,0.5,0,0.8-0.1c1.7-0.4,2.8-2.1,2.4-3.8
				C599.3,366.4,597.9,365.4,596.5,365.4L596.5,365.4z"/>
		</g>
		<g>
			<path class="st1" d="M584.6,383.8c-1.3,0-2.4-0.9-2.7-2.1c-0.3-1.4,0.6-2.8,2.1-3.3c0.2,0,0.4-0.1,0.6-0.1c1.3,0,2.5,0.9,2.7,2.1
				c0.2,0.7,0.1,1.4-0.3,2c-0.4,0.6-1,1.1-1.7,1.2C585,383.8,584.8,383.8,584.6,383.8z"/>
			<path class="st5" d="M584.6,378.8L584.6,378.8c1.1,0,2.1,0.8,2.3,1.8c0.1,0.6,0,1.2-0.3,1.7c-0.3,0.5-0.9,0.9-1.5,1
				c-0.2,0-0.4,0.1-0.6,0.1c-1.1,0-2-0.8-2.3-1.8c-0.3-1.2,0.5-2.4,1.8-2.8C584.2,378.8,584.4,378.8,584.6,378.8 M584.6,377.9
				c-0.2,0-0.5,0-0.7,0.1c-1.8,0.5-2.8,2.2-2.4,3.8c0.3,1.4,1.6,2.5,3.1,2.5c0.3,0,0.5,0,0.8-0.1c1.7-0.4,2.8-2.1,2.4-3.8
				C587.5,378.9,586,377.9,584.6,377.9L584.6,377.9z"/>
		</g>
		<g>
			<path class="st1" d="M568.7,392.8c-1.3,0-2.4-0.9-2.7-2.1c-0.3-1.5,0.5-2.9,2.1-3.3c0.2-0.1,0.4-0.1,0.6-0.1
				c1.3,0,2.5,0.9,2.7,2.1c0.2,0.7,0.1,1.4-0.3,2c-0.4,0.6-1,1.1-1.7,1.2C569.1,392.8,568.9,392.8,568.7,392.8z"/>
			<path class="st5" d="M568.7,387.7L568.7,387.7c1.1,0,2.1,0.8,2.3,1.8c0.1,0.6,0,1.2-0.3,1.7c-0.3,0.5-0.9,0.9-1.5,1
				c-0.2,0-0.4,0.1-0.6,0.1c-1.1,0-2-0.8-2.3-1.8c-0.2-1.1,0.2-2.4,1.8-2.8C568.4,387.7,568.5,387.7,568.7,387.7 M568.7,386.8
				c-0.2,0-0.5,0-0.7,0.1c-1.9,0.4-2.8,2.1-2.4,3.8c0.3,1.4,1.6,2.5,3.1,2.5c0.3,0,0.5,0,0.8-0.1c1.7-0.4,2.8-2.1,2.4-3.8
				C571.6,387.9,570.2,386.8,568.7,386.8L568.7,386.8z"/>
		</g>
	</g>
	<g id="Cafe">
		<g>
			<g>
				<path class="st3" d="M555.2,406.6c-6.1-2.8-12.6-4.5-19.9-5h-0.5c-16.1-1.3-31-7-43-16.5c-12.8-10-21.8-23.6-26-39.3l0-0.1
					l-0.2-0.1c-3.1-2-5.1-4.4-6-7.3c-1.4-4.7,0.4-9.9,4.7-13.5c0.9,0.8,6.1,5.5,5.6,12.6c-0.2,3.9-2,6.6-2.9,8l-0.2,0.3l0,0.1
					c2.6,8.7,11,30.5,33.7,44.1c10.1,6.1,21.7,9.7,34.4,10.8l0.6,0c7.2,0.5,13.6,2.1,19.5,5c0.4,0.2,0.4,0.5,0.4,0.6
					C555.4,406.6,555.3,406.6,555.2,406.6z"/>
				<path class="st4" d="M464.2,325.2c1.2,1,5.8,5.6,5.4,12.3c-0.2,3.8-1.9,6.5-2.9,7.9l-0.1,0.2l-0.1,0.2l0.1,0.2
					c2.6,8.8,11.1,30.6,33.8,44.3c10.1,6.1,21.8,9.8,34.6,10.8l0.6,0c7.2,0.5,13.6,2.1,19.4,5c0.2,0.1,0.3,0.2,0.3,0.3c0,0,0,0,0,0
					c-6.1-2.8-12.6-4.5-20-5l-0.5,0c-16.1-1.3-30.9-7-42.9-16.4c-12.7-10-21.7-23.6-25.9-39.2l0-0.2l-0.1-0.1l-0.1-0.1
					c-1.1-0.7-4.6-2.9-5.9-7.1C458.4,333.8,460.1,328.8,464.2,325.2 M464.2,324.6c-4.3,3.6-6.3,9-4.9,13.8c1.4,4.5,5.2,6.8,6.2,7.5
					c1.7,6.2,7.4,24.7,26.1,39.4c17.3,13.6,35.7,15.9,43.1,16.5c0.1,0,0.2,0,0.5,0c9.1,0.6,15.5,2.9,19.9,5c0.1,0,0.3,0,0.5-0.2
					c0.1-0.2,0-0.7-0.5-1c-4.2-2-10.5-4.4-19.6-5.1c-0.3,0-0.5,0-0.6,0c-7.7-0.6-20.9-2.6-34.3-10.7c-24.1-14.5-31.8-37.7-33.6-44
					c0.9-1.3,2.9-4.2,3.1-8.3C470.5,330.1,465,325.2,464.2,324.6L464.2,324.6z"/>
			</g>
			<g>
				<path class="st3" d="M465.9,345.3c0,0-4.6-2.8-5.9-7.1c-1.3-4.4,0.3-9.3,4.2-12.8c1.4,1.2,5.6,5.6,5.2,12
					c-0.2,3.7-2.6,7.4-2.9,7.9l-0.2,0.2L465.9,345.3z"/>
				<g>
					<path class="st4" d="M464.2,326.4c1.6,1.6,4.9,5.5,4.5,11c-0.1,3.1-2,6.2-2.6,7.3c-0.7-0.5-4.4-3-5.5-6.6
						C459.4,334.1,460.8,329.7,464.2,326.4 M464.2,324.6c-4.3,3.6-6.3,9-4.9,13.8c1.4,4.5,6.2,7.5,6.2,7.5l0.8,0.5l0.6-0.5
						c0,0,2.9-4.2,3.1-8.3C470.5,330.1,465,325.2,464.2,324.6L464.2,324.6z"/>
				</g>
			</g>
			<g>
				<path class="st3" d="M460.2,353.2c-5.3,0-8.7-3.2-10.5-9.9c8.9,0.1,14,3,16,8.9C463.7,352.8,461.8,353.2,460.2,353.2z"/>
				<path class="st4" d="M450.6,344c9.7,0.3,12.9,4.3,14.2,7.8c-1.7,0.5-3.2,0.7-4.6,0.7C455.4,352.5,452.3,349.8,450.6,344
					 M449.2,342.6c-0.1,0-0.2,0-0.4,0c1.9,8,5.9,11.2,11.3,11.2c1.9,0,4.1-0.4,6.3-1.2C464.8,346.8,460.3,342.6,449.2,342.6
					L449.2,342.6z"/>
			</g>
			<g>
				<path class="st1" d="M465.1,361.1c-0.2,0-0.4,0-0.7-0.1c-1.5-0.4-2.4-1.8-2.1-3.3c0.3-1.2,1.5-2.1,2.8-2.1c0.2,0,0.4,0,0.6,0.1
					c1.5,0.4,2.4,1.8,2.1,3.3C467.4,360.2,466.3,361.1,465.1,361.1z"/>
				<path class="st5" d="M465.1,356.1L465.1,356.1c0.2,0,0.3,0,0.4,0c1.3,0.3,2,1.5,1.8,2.7c-0.3,1.1-1.2,1.8-2.3,1.8
					c-0.2,0-0.4,0-0.5-0.1c-1.2-0.3-2-1.5-1.8-2.8C463,356.8,464,356.1,465.1,356.1 M465.1,355.2c-1.5,0-2.9,1-3.2,2.5
					c-0.4,1.7,0.7,3.4,2.4,3.8c0.3,0.1,0.5,0.1,0.8,0.1c1.5,0,2.8-1.1,3.1-2.5c0.4-1.7-0.6-3.4-2.4-3.8
					C465.6,355.2,465.4,355.2,465.1,355.2L465.1,355.2z"/>
			</g>
		</g>
		<g>
			<path class="st3" d="M466.7,371.8c-4.1,0-7.5-2.6-10.2-7.8c2-0.4,3.9-0.5,5.6-0.5c5.8,0,9.6,2,12,6.2
				C471.3,371.1,468.9,371.8,466.7,371.8z"/>
			<path class="st4" d="M462.1,364.1L462.1,364.1c5.2,0,8.8,1.7,11,5.3c-2.4,1.2-4.5,1.7-6.4,1.7c-3.6,0-6.7-2.2-9.2-6.6
				C459.2,364.2,460.7,364.1,462.1,364.1 M462.1,362.8c-1.9,0-4.1,0.2-6.6,0.7c3.1,6.4,6.8,9,11.2,9c2.6,0,5.3-0.9,8.3-2.5
				C472.8,365.7,469,362.8,462.1,362.8L462.1,362.8z"/>
		</g>
		<g>
			<path class="st1" d="M475.2,377.9c-0.2,0-0.4,0-0.7-0.1c-1.5-0.4-2.4-1.8-2.1-3.3c0.3-1.2,1.5-2.1,2.8-2.1c0.2,0,0.4,0,0.6,0.1
				c1.5,0.4,2.4,1.8,2.1,3.3C477.6,377,476.4,377.9,475.2,377.9z"/>
			<path class="st5" d="M475.3,372.8L475.3,372.8c0.2,0,0.3,0,0.4,0c1.3,0.3,2,1.5,1.8,2.7c-0.3,1.1-1.2,1.8-2.3,1.8
				c-0.2,0-0.4,0-0.5-0.1c-1.2-0.3-2-1.5-1.8-2.8C473.1,373.6,474.1,372.8,475.3,372.8 M475.3,371.9c-1.5,0-2.9,1-3.2,2.5
				c-0.4,1.7,0.7,3.4,2.4,3.8c0.3,0.1,0.5,0.1,0.8,0.1c1.5,0,2.8-1.1,3.1-2.5c0.4-1.7-0.6-3.4-2.4-3.8
				C475.7,372,475.5,371.9,475.3,371.9L475.3,371.9z"/>
		</g>
		<g>
			<path class="st3" d="M478.4,388.1c-3.3,0-6.5-1.8-9.8-5.5c3.6-1.6,6.9-2.4,9.6-2.4c3.5,0,6.4,1.3,8.8,3.9
				C484,386.7,481.2,388.1,478.4,388.1z"/>
			<path class="st4" d="M478.2,380.8L478.2,380.8c3.1,0,5.7,1,7.9,3.2c-2.7,2.3-5.3,3.4-7.7,3.4c-2.9,0-5.7-1.5-8.6-4.6
				C472.9,381.5,475.7,380.8,478.2,380.8 M478.2,379.5c-3,0-6.5,0.8-10.7,2.8c3.7,4.5,7.4,6.4,10.9,6.4c3.3,0,6.5-1.7,9.6-4.6
				C485.6,381.3,482.5,379.5,478.2,379.5L478.2,379.5z"/>
		</g>
		<g>
			<path class="st3" d="M493.5,401.3c-2.5,0-5.4-1-8.5-3.1c4.3-3.5,8.1-5.2,11.8-5.2c2.2,0,4.2,0.6,6.3,1.8
				C500.3,399.2,497.1,401.3,493.5,401.3z"/>
			<path class="st4" d="M496.7,393.6L496.7,393.6c1.8,0,3.6,0.4,5.4,1.4c-2.5,3.8-5.4,5.6-8.6,5.6c-2.2,0-4.7-0.8-7.4-2.5
				C489.9,395.1,493.4,393.6,496.7,393.6 M496.7,392.3c-3.7,0-8,1.7-12.9,6c3.7,2.5,6.8,3.7,9.6,3.7c4.4,0,7.8-2.8,10.5-7.4
				C501.8,393.2,499.4,392.3,496.7,392.3L496.7,392.3z"/>
		</g>
		<g>
			<path class="st1" d="M489.1,392c-0.2,0-0.4,0-0.7-0.1c-1.5-0.4-2.4-1.8-2.1-3.3c0.4-1.2,1.5-2.1,2.8-2.1c0.2,0,0.4,0,0.6,0.1
				c1.5,0.4,2.4,1.8,2.1,3.3C491.5,391.1,490.4,392,489.1,392z"/>
			<path class="st5" d="M489.2,386.9L489.2,386.9c0.2,0,0.3,0,0.4,0c1.3,0.3,2,1.5,1.8,2.7c-0.3,1.1-1.2,1.8-2.3,1.8
				c-0.2,0-0.4,0-0.5-0.1c-1.2-0.3-2-1.5-1.8-2.7C487.2,387.7,488.1,386.9,489.2,386.9 M489.2,386.1c-1.4,0-2.8,0.9-3.2,2.5
				c-0.4,1.7,0.7,3.4,2.4,3.8c0.3,0.1,0.5,0.1,0.8,0.1c1.5,0,2.8-1.1,3.1-2.5c0.4-1.7-0.6-3.4-2.4-3.8
				C489.6,386.1,489.4,386.1,489.2,386.1L489.2,386.1z"/>
		</g>
		<g>
			<path class="st1" d="M506.7,402.1c-0.2,0-0.4,0-0.7-0.1c-1.5-0.4-2.4-1.8-2.1-3.3c0.4-1.2,1.6-2.1,2.8-2.1c0.2,0,0.4,0,0.5,0.1
				c1.5,0.4,2.4,1.8,2.1,3.3C509.1,401.2,508,402.1,506.7,402.1z"/>
			<path class="st5" d="M506.8,397.1L506.8,397.1c0.1,0,0.3,0,0.4,0c1.3,0.3,2,1.5,1.8,2.7c-0.3,1.1-1.2,1.8-2.3,1.8
				c-0.2,0-0.4,0-0.5-0.1c-1.2-0.3-2-1.5-1.8-2.7C504.7,397.8,505.8,397.1,506.8,397.1 M506.8,396.2c-1.4,0-2.8,1-3.3,2.5
				c-0.4,1.7,0.7,3.4,2.4,3.8c0.3,0.1,0.5,0.1,0.8,0.1c1.5,0,2.8-1.1,3.1-2.5c0.4-1.7-0.6-3.4-2.4-3.8
				C507.2,396.2,507,396.2,506.8,396.2L506.8,396.2z"/>
		</g>
		<g>
			<path class="st3" d="M470.5,350.4c-2.3-5.8,0-11.1,7.1-16.5c1.8,4.1,2,7.5,0.9,10.2C477.3,346.8,474.7,348.8,470.5,350.4z"/>
			<path class="st4" d="M477.3,335c1.4,3.6,1.5,6.5,0.6,8.8c-1,2.4-3.3,4.3-7,5.7C469.7,346,469.7,341.1,477.3,335 M477.9,332.9
				c-9.1,6.7-10.2,12.7-7.7,18.4C478.6,348.3,482.5,343,477.9,332.9L477.9,332.9z"/>
		</g>
		<g>
			<path class="st3" d="M479.1,366.3c-3.4-5.3-2.3-10.9,3.6-17.6c2.6,3.8,3.6,7.1,3,10C485.1,361.6,483,364.1,479.1,366.3z"/>
			<path class="st4" d="M482.6,349.9c2.1,3.3,3,6.2,2.4,8.8c-0.5,2.5-2.4,4.8-5.7,6.8C477.5,362.2,476.5,357.3,482.6,349.9
				 M482.8,347.7c-7.5,8.3-7.4,14.5-3.8,19.5C486.7,362.9,489.5,356.8,482.8,347.7L482.8,347.7z"/>
		</g>
		<g>
			<path class="st3" d="M490.9,379.7c-4.7-4.3-5-10-1.1-17.8c3.6,3,5.4,6,5.5,8.9C495.4,373.7,494,376.6,490.9,379.7z"/>
			<path class="st4" d="M490,363c3,2.7,4.5,5.3,4.6,7.9c0.1,2.5-1.1,5.1-3.8,7.9C488.2,376.1,485.9,371.6,490,363 M489.6,360.8
				c-5.1,9.8-3.5,15.7,1.3,19.8C497.3,374.4,498.5,368,489.6,360.8L489.6,360.8z"/>
		</g>
		<g>
			<path class="st3" d="M505.6,390.2c-5.6-3.1-7.4-8.5-5.5-17.1c4.2,2.1,6.7,4.6,7.5,7.5C508.4,383.4,507.7,386.5,505.6,390.2z"/>
			<path class="st4" d="M500.6,374.2c3.5,1.9,5.7,4.2,6.4,6.6c0.7,2.4,0.2,5.2-1.6,8.5C502.1,387.3,498.8,383.5,500.6,374.2
				 M499.6,372.2c-2.6,10.7,0.5,16.1,6.2,18.9C510.5,383.6,509.8,377.1,499.6,372.2L499.6,372.2z"/>
		</g>
		<g>
			<path class="st1" d="M474.5,356.7c-0.2,0-0.4,0-0.7-0.1c-1.5-0.4-2.4-1.8-2.1-3.3c0.3-1.2,1.5-2.1,2.8-2.1c0.2,0,0.4,0,0.6,0.1
				c1.5,0.4,2.4,1.8,2.1,3.3C476.8,355.8,475.7,356.7,474.5,356.7z"/>
			<path class="st5" d="M474.6,351.6L474.6,351.6c0.2,0,0.3,0,0.4,0c1.3,0.3,2,1.5,1.8,2.7c-0.3,1.1-1.2,1.8-2.3,1.8
				c-0.2,0-0.4,0-0.5-0.1c-1.2-0.3-2-1.5-1.8-2.8C472.4,352.4,473.4,351.6,474.6,351.6 M474.6,350.7c-1.5,0-2.9,1-3.2,2.5
				c-0.4,1.7,0.7,3.4,2.4,3.8c0.3,0.1,0.5,0.1,0.8,0.1c1.5,0,2.8-1.1,3.1-2.5c0.4-1.7-0.6-3.4-2.4-3.8
				C475,350.8,474.8,350.7,474.6,350.7L474.6,350.7z"/>
		</g>
		<g>
			<path class="st1" d="M483.4,371.2c-0.2,0-0.4,0-0.7-0.1c-1.5-0.4-2.4-1.8-2.1-3.3c0.3-1.2,1.5-2.1,2.7-2.1c0.2,0,0.4,0,0.6,0.1
				c1.5,0.4,2.4,1.8,2.1,3.3C485.8,370.3,484.7,371.2,483.4,371.2z"/>
			<path class="st5" d="M483.4,366.2L483.4,366.2c0.2,0,0.4,0,0.5,0.1c1.3,0.3,2,1.5,1.8,2.7c-0.3,1.1-1.2,1.8-2.3,1.8
				c-0.2,0-0.4,0-0.5-0.1c-1.2-0.3-2-1.5-1.8-2.8C481.4,366.9,482.4,366.2,483.4,366.2 M483.4,365.3c-1.5,0-2.9,1.1-3.2,2.5
				c-0.4,1.7,0.7,3.4,2.4,3.8c0.3,0.1,0.5,0.1,0.8,0.1c1.5,0,2.8-1.1,3.1-2.5c0.4-1.7-0.6-3.4-2.4-3.8
				C483.9,365.3,483.7,365.3,483.4,365.3L483.4,365.3z"/>
		</g>
		<g>
			<path class="st1" d="M495.3,383.8c-0.2,0-0.4,0-0.7-0.1c-1.5-0.4-2.4-1.8-2.1-3.3c0.4-1.2,1.5-2.1,2.7-2.1c0.2,0,0.4,0,0.6,0.1
				c1.5,0.4,2.4,1.8,2.1,3.3C497.7,382.9,496.6,383.8,495.3,383.8z"/>
			<path class="st5" d="M495.3,378.8L495.3,378.8c0.2,0,0.3,0,0.5,0.1c1.3,0.3,2,1.5,1.8,2.7c-0.3,1.1-1.2,1.8-2.3,1.8
				c-0.2,0-0.4,0-0.5-0.1c-1.2-0.3-2-1.5-1.8-2.7C493.4,379.5,494.3,378.8,495.3,378.8 M495.3,377.9c-1.4,0-2.7,1.1-3.2,2.5
				c-0.4,1.7,0.7,3.4,2.4,3.8c0.3,0.1,0.5,0.1,0.8,0.1c1.5,0,2.8-1.1,3.1-2.5c0.4-1.7-0.6-3.4-2.4-3.8
				C495.8,377.9,495.6,377.9,495.3,377.9L495.3,377.9z"/>
		</g>
		<g>
			<path class="st1" d="M511.3,392.7c-0.2,0-0.4,0-0.7-0.1c-1.5-0.4-2.4-1.8-2.1-3.3c0.3-1.2,1.5-2.1,2.9-2.1c0.2,0,0.3,0,0.5,0
				c1.5,0.4,2.3,1.8,2,3.3C513.7,391.8,512.6,392.7,511.3,392.7z"/>
			<path class="st5" d="M511.5,387.7L511.5,387.7c0.1,0,0.3,0,0.4,0c1.2,0.3,2,1.5,1.7,2.7c-0.3,1.1-1.2,1.8-2.3,1.8
				c-0.2,0-0.4,0-0.5-0.1c-1.2-0.3-2-1.5-1.8-2.7C509.3,388.4,510.3,387.7,511.5,387.7 M511.5,386.8c-1.5,0-3,0.9-3.3,2.4
				c-0.4,1.7,0.7,3.4,2.4,3.8c0.3,0.1,0.5,0.1,0.8,0.1c1.5,0,2.8-1.1,3.1-2.5c0.4-1.7-0.6-3.4-2.4-3.8
				C511.9,386.8,511.7,386.8,511.5,386.8L511.5,386.8z"/>
		</g>
	</g>
</g>
</svg>
